# xmcd
#
# Track frame offsets:
#	150
#	13242
#	22962
#	36974
#	48019
#	66169
#	79151
#	92236
#	102606
#	119774
#	142877
#	157826
#	173391
#	196494
#
# Disc length: 2777 seconds
#
# Revision: 1
# Processed by: cddbd v1.5.2PL0 Copyright (c) Steve Scherf et al.
# Submitted via: audiograbber 1.83.01
#
DISCID=b30ad70e
DTITLE=Heinrich - Cash Cadi
DYEAR=2002
DGENRE=Country
TTITLE0=I´ll be Home
TTITLE1=I won`t back down (Ich weich nicht zurück)
TTITLE2=Here comes the Sun
TTITLE3=Solitary Man (Einsam und allein)
TTITLE4=Spitfire
TTITLE5=This Time (Diesmal)
TTITLE6=I found you
TTITLE7=Sprichworte
TTITLE8=The higher you fly
TTITLE9=Southern accents (Plattdütsch)
TTITLE10=Wish I would
TTITLE11=Cash Cadi(llac)
TTITLE12=Southern Accents
TTITLE13=Ring of Fire
EXTD=Der deutsche Johnny Cash
EXTT0=
EXTT1=
EXTT2=
EXTT3=
EXTT4=
EXTT5=
EXTT6=
EXTT7=
EXTT8=
EXTT9=
EXTT10=
EXTT11=
EXTT12=
EXTT13=
PLAYORDER=
